<svg width="690" height="370" viewBox="0 0 690 370" fill="none" xmlns="http://www.w3.org/2000/svg">
<circle cx="24.0671" cy="264.649" r="24.0672" transform="rotate(180 24.0671 264.649)" fill="#121212"/>
<circle cx="24.0671" cy="184.425" r="24.0672" transform="rotate(180 24.0671 184.425)" fill="#121212"/>
<circle cx="24.0671" cy="104.201" r="24.0672" transform="rotate(180 24.0671 104.201)" fill="#121212"/>
<circle cx="665.067" cy="264.515" r="24.0672" transform="rotate(180 665.067 264.515)" fill="#121212"/>
<circle cx="665.067" cy="184.291" r="24.0672" transform="rotate(180 665.067 184.291)" fill="#121212"/>
<circle cx="665.067" cy="104.067" r="24.0672" transform="rotate(180 665.067 104.067)" fill="#121212"/>
<circle cx="104.291" cy="24.0671" r="24.0672" transform="rotate(-90 104.291 24.0671)" fill="#121212"/>
<circle cx="184.514" cy="24.0671" r="24.0672" transform="rotate(-90 184.514 24.0671)" fill="#121212"/>
<circle cx="424.067" cy="184.067" r="24.0672" transform="rotate(-90 424.067 184.067)" fill="#121212"/>
<circle cx="345.067" cy="184.067" r="24.0672" transform="rotate(-90 345.067 184.067)" fill="#121212"/>
<circle cx="504.291" cy="184.067" r="24.0672" transform="rotate(-90 504.291 184.067)" fill="#121212"/>
<circle cx="584.515" cy="184.067" r="24.0672" transform="rotate(-90 584.515 184.067)" fill="#121212"/>
<circle cx="104.067" cy="184.067" r="24.0672" transform="rotate(-90 104.067 184.067)" fill="#121212"/>
<circle cx="184.291" cy="184.067" r="24.0672" transform="rotate(-90 184.291 184.067)" fill="#121212"/>
<circle cx="264.515" cy="184.067" r="24.0672" transform="rotate(-90 264.515 184.067)" fill="#121212"/>
<circle cx="345.067" cy="104.067" r="24.0672" transform="rotate(-90 345.067 104.067)" fill="#121212"/>
<circle cx="345.067" cy="265.067" r="24.0672" transform="rotate(-90 345.067 265.067)" fill="#121212"/>
<circle cx="104.291" cy="345.067" r="24.0672" transform="rotate(-90 104.291 345.067)" fill="#121212"/>
<circle cx="184.514" cy="345.067" r="24.0672" transform="rotate(-90 184.514 345.067)" fill="#121212"/>
<circle cx="505.067" cy="24.0671" r="24.0672" transform="rotate(-90 505.067 24.0671)" fill="#121212"/>
<circle cx="585.291" cy="24.0671" r="24.0672" transform="rotate(-90 585.291 24.0671)" fill="#121212"/>
<circle cx="505.067" cy="345.067" r="24.0672" transform="rotate(-90 505.067 345.067)" fill="#121212"/>
<circle cx="585.291" cy="345.067" r="24.0672" transform="rotate(-90 585.291 345.067)" fill="#121212"/>
<circle cx="264.649" cy="24.0671" r="24.0672" transform="rotate(-90 264.649 24.0671)" fill="#121212"/>
<circle cx="344.873" cy="24.0671" r="24.0672" transform="rotate(-90 344.873 24.0671)" fill="#121212"/>
<circle cx="425.097" cy="24.0671" r="24.0672" transform="rotate(-90 425.097 24.0671)" fill="#121212"/>
<circle cx="264.649" cy="345.067" r="24.0672" transform="rotate(-90 264.649 345.067)" fill="#121212"/>
<circle cx="344.873" cy="345.067" r="24.0672" transform="rotate(-90 344.873 345.067)" fill="#121212"/>
<circle cx="425.097" cy="345.067" r="24.0672" transform="rotate(-90 425.097 345.067)" fill="#121212"/>
</svg>
